<?xml version="1.0"?>
<svg xmlns="http://www.w3.org/2000/svg" xmlns:xlink="http://www.w3.org/1999/xlink" version="1.1" id="Capa_1" x="0px" y="0px" viewBox="0 0 412 412" style="enable-background:new 0 0 412 412;" xml:space="preserve" width="512px" height="512px" class=""><g><g>
	<g>
		<path d="M389,259.2c-2-5.2-7.6-8.4-12.8-6.4l-43.6,14.8l-24.4-14l26.8-9.2c5.2-2,8.4-7.6,6.4-12.8c-2-5.2-7.6-8.4-12.8-6.4    L285,240l-15.6-9.2l42.4-17.6c2.8-1.2,4.8-3.2,6-6.4c1.6-5.2-1.2-11.2-6.4-12.8l-39.6-13.2l13.6-8l43.6,14.8    c5.2,2,11.2-1.2,12.8-6.4c2-5.2-1.2-11.2-6.4-12.8l-26.8-9.2l24.4-14l42.8,15.2c5.2,2,11.2-1.2,12.8-6.4c2-5.2-1.2-11.2-6.4-12.8    l-26.8-9.2l25.2-14.4c4.8-2.8,6.4-9.2,3.6-14c-2.8-4.8-9.2-6.4-14-3.6L345,114.4l5.6-27.6c1.2-5.6-2.4-10.8-8-12    c-5.6-1.2-10.8,2.4-12,8l-8.4,44.8l-24.4,14l5.6-27.6c1.2-5.6-2.4-10.8-8-12c-5.6-1.2-10.8,2.4-12,8l-9.2,45.2l-15.6,9.2l6-45.2    c0.4-2.8-0.4-5.6-2.4-8c-3.6-4.4-10.4-4.8-14.4-0.8L216.6,138v-15.6L251.4,92c4.4-3.6,4.8-10,0.8-14.4c-3.6-4.4-10-4.8-14.4-0.8    l-21.2,18.4v-28l34.8-30.4c4.4-3.6,4.8-10,0.8-14.4c-3.6-4.4-10-4.8-14.4-0.8L216.6,40V10.4c0-5.6-4.4-10.4-10.4-10.4    c-5.6,0-10.4,4.4-10.4,10.4v28.8l-21.2-18.4c-4.4-3.6-10.8-3.2-14.4,0.8C156.6,26,157,32.4,161,36l34.8,30.4v28L174.6,76    c-4.4-3.6-10.8-3.2-14.4,0.8c-3.6,4.4-3.2,10.8,0.8,14.4l34.8,30.4V140l-36-28c-2.4-1.6-5.2-2.4-8.4-2c-5.6,1.2-9.2,6.4-8,12    l8.4,40.8l-13.6-8l-8.8-45.2c-1.2-5.6-6.4-9.2-12-8c-5.6,1.2-9.2,6.4-8,12l5.6,27.6l-24.8-13.6l-8.8-45.2c-1.2-5.6-6.4-9.2-12-8    c-5.6,1.2-9.2,6.4-8,12L67,114L41.8,99.6c-4.8-2.8-11.2-1.2-14,3.6s-1.2,11.2,3.6,14l25.2,14.4l-26.8,9.2c-5.2,2-8.4,7.6-6.4,12.8    S31,162,36.2,160l43.6-14.8l24.4,14l-26.8,9.2c-5.2,2-8.4,7.6-6.4,12.8c2,5.2,7.6,8.4,12.8,6.4l43.6-14.8L143,182l-42.4,17.6    c-2.8,1.2-4.8,3.2-6,6.4c-1.6,5.2,1.2,11.2,6.4,12.8l39.6,13.2l-13.6,8l-43.6-14.8c-5.2-2-11.2,1.2-12.8,6.4    c-2,5.2,1.2,11.2,6.4,12.8l26.8,9.2l-24.4,14l-43.6-14.8c-5.2-2-11.2,1.2-12.8,6.4c-2,5.2,1.2,11.2,6.4,12.8l26.8,9.2L31,295.6    c-4.8,2.8-6.4,9.2-3.6,14c2.8,4.8,9.2,6.4,14,3.6l25.2-14.4l-5.2,27.6c-1.2,5.6,2.4,10.8,8,12c5.6,1.2,10.8-2.4,12-8l8.8-45.2    l24.4-14l-5.6,27.6c-1.2,5.6,2.4,10.8,8,12c5.6,1.2,10.8-2.4,12-8l9.2-45.2l15.6-9.2l-6,45.2c-0.4,2.8,0.4,5.6,2.4,8    c3.6,4.4,10.4,4.8,14.4,0.8l31.2-27.6v15.6L161,320.8c-4.4,3.6-4.8,10-0.8,14.4c3.6,4.4,10,4.8,14.4,0.8l21.2-18.4v28L161,376    c-4.4,3.6-4.8,10-0.8,14.4c3.6,4.4,10,4.8,14.4,0.8l21.2-18.4v28.8c0,5.6,4.4,10.4,10.4,10.4c5.6,0,10.4-4.4,10.4-10.4v-28.8    l21.2,18.4c4.4,3.6,10.8,3.2,14.4-0.8c3.6-4.4,3.2-10.8-0.8-14.4l-34.8-29.6v-28l21.2,18.4c4.4,3.6,10.8,3.2,14.4-0.8    c3.6-4.4,3.2-10.8-0.8-14.4l-34.8-30.4v-18.4l36,28c2.4,1.6,5.2,2.4,8.4,2c5.6-1.2,9.2-6.4,8-12l-8.4-40.8l13.6,8l8.8,45.2    c1.2,5.6,6.4,9.2,12,8c5.6-1.2,9.2-6.4,8-12l-5.6-27.6l24.4,14l9.2,44.8c1.2,5.6,6.4,9.2,12,8c5.6-1.2,9.2-6.4,8-12l-5.6-27.6    l25.2,14.4c4.8,2.8,11.2,1.2,14-3.6s1.2-11.2-3.6-14l-25.2-14.4l26.8-9.2C387.8,270,391,264.4,389,259.2z M242.2,219.6    c-4.8,2-7.2,6.8-6,11.6l7.6,36.4L213.4,244c-4-3.2-9.6-2.8-13.2,0.8l-27.6,24.4l5.2-38.4c0.8-5.2-2.4-10-7.2-11.2L135.8,208    l35.6-14.8c4.8-2,7.2-6.8,6-11.6l-7.6-36.4l30.4,23.6c4,3.2,9.6,2.8,13.2-0.8l27.6-24.4l-5.2,38.4c-0.8,5.2,2.4,10,7.2,11.2    l34.8,11.6L242.2,219.6z" data-original="#000000" class="active-path" data-old_color="#000000" fill="#FFFFFF"/>
	</g>
</g></g> </svg>
