<?xml version="1.0"?>
<svg xmlns="http://www.w3.org/2000/svg" id="Capa_1" enable-background="new 0 0 512 512" height="512px" viewBox="0 0 512 512" width="512px" class=""><g><path d="m198.501 84.252h93.633c13.596 0 24.617-11.064 24.617-24.711s-11.021-24.711-24.617-24.711h-12.12c0-19.236-15.534-34.83-34.696-34.83s-34.696 15.594-34.696 34.829h-12.12c-13.596 0-24.617 11.064-24.617 24.711s11.021 24.712 24.616 24.712z" data-original="#000000" class="active-path" data-old_color="#000000" fill="#C7B58C"/><path d="m419.633 106.527c-20.053 0-36.366 16.356-36.366 36.462v10.354h72.733v-10.354c0-20.105-16.314-36.462-36.367-36.462z" data-original="#000000" class="active-path" data-old_color="#000000" fill="#C7B58C"/><path d="m390.587 410.206 20.45 34.41c1.803 3.032 5.069 4.891 8.597 4.891 3.527 0 6.794-1.858 8.597-4.892l20.449-34.41c4.578-7.704 7.092-16.467 7.305-25.418h-72.703c.213 8.951 2.727 17.714 7.305 25.419z" data-original="#000000" class="active-path" data-old_color="#000000" fill="#C7B58C"/><path d="m383.267 183.343h72.733v171.444h-72.733z" data-original="#000000" class="active-path" data-old_color="#000000" fill="#C7B58C"/><path d="m389.548 457.39-20.45-34.41c-7.09-11.93-10.83-25.56-10.83-39.43v-240.56c0-33.89 27.53-61.46 61.36-61.46 4.71 0 9.29.53 13.69 1.54-5.19-22.34-25.22-39.03-49.06-39.03h-39.74c1.45 4.91 2.23 10.12 2.23 15.5 0 30.17-24.5 54.71-54.61 54.71h-93.64c-30.11 0-54.61-24.54-54.61-54.71 0-5.38.78-10.59 2.23-15.5h-39.74c-27.778 0-50.378 22.65-50.378 50.5v366.95c0 27.85 22.6 50.51 50.38 50.51h277.879c24.33 0 44.68-17.38 49.36-40.41-4.34 1.89-9.09 2.92-13.98 2.92-12.351 0-23.781-6.51-30.091-17.12zm-254.261-185.311h165.372c8.284 0 15 6.716 15 15s-6.716 15-15 15h-165.372c-8.284 0-15-6.716-15-15s6.716-15 15-15zm-15-34.996c0-8.284 6.716-15 15-15h148.085c8.284 0 15 6.716 15 15s-6.716 15-15 15h-148.085c-8.284 0-15-6.716-15-15zm15 84.992h54.388c8.284 0 15 6.716 15 15s-6.716 15-15 15h-54.388c-8.284 0-15-6.716-15-15s6.716-15 15-15zm148.085 129.991h-148.085c-8.284 0-15-6.716-15-15s6.716-15 15-15h148.085c8.284 0 15 6.716 15 15s-6.716 15-15 15zm39.843-49.996h-187.928c-8.284 0-15-6.716-15-15s6.716-15 15-15h187.929c8.284 0 15 6.716 15 15s-6.716 15-15.001 15zm0-199.984h-187.928c-8.284 0-15-6.716-15-15s6.716-15 15-15h187.929c8.284 0 15 6.716 15 15s-6.716 15-15.001 15z" data-original="#000000" class="active-path" data-old_color="#000000" fill="#C7B58C"/></g> </svg>
