<svg width="155" height="40" viewBox="0 0 155 40" fill="none" xmlns="http://www.w3.org/2000/svg">
<g clip-path="url(#clip0)">
<g filter="url(#filter0_d)">
<path d="M19.3377 0.412354L36.0846 9.38143V27.3196L19.3377 36.2886L2.59075 27.3196V9.38143L19.3377 0.412354Z" fill="#34C96A"/>
</g>
<g style="mix-blend-mode:color">
<g style="mix-blend-mode:color">
<path d="M19.3377 0.412354L36.0846 9.38143V27.3196L19.3377 36.2886L2.59075 27.3196V9.38143L19.3377 0.412354Z" fill="#293347"/>
</g>
</g>
<g style="mix-blend-mode:overlay">
<g style="mix-blend-mode:overlay">
<path d="M19.5456 6.59803V0.618652L36.3881 9.48463L30.774 12.3712L19.5456 6.59803Z" fill="white"/>
</g>
</g>
<g style="mix-blend-mode:overlay">
<g style="mix-blend-mode:overlay">
<path d="M30.3581 24.5363L36.1802 27.2167V9.69092L30.3581 12.1651V24.5363Z" fill="white" fill-opacity="0.21"/>
</g>
</g>
<g style="mix-blend-mode:overlay">
<g style="mix-blend-mode:overlay">
<path d="M30.566 24.3298L36.1802 27.0102L19.3377 36.0824V30.3092L30.566 24.3298Z" fill="black" fill-opacity="0.37"/>
</g>
</g>
<g style="mix-blend-mode:overlay">
<path style="mix-blend-mode:overlay" d="M8.24799 24.3298L2.70312 27.0102L19.3377 36.0824V30.3092L8.24799 24.3298Z" fill="url(#paint0_linear)" fill-opacity="0.21"/>
</g>
<g style="mix-blend-mode:overlay">
<g style="mix-blend-mode:overlay">
<path d="M8.10936 24.5363L2.70312 27.2167V9.69092L8.10936 12.1651V24.5363Z" fill="black" fill-opacity="0.29"/>
</g>
</g>
<g style="mix-blend-mode:overlay">
<g style="mix-blend-mode:overlay">
<path d="M19.5456 6.59803V0.618652L2.70312 9.48463L8.31729 12.3712L19.5456 6.59803Z" fill="white" fill-opacity="0.38"/>
</g>
</g>
<g style="mix-blend-mode:exclusion">
<g style="mix-blend-mode:exclusion">
<path d="M19.5456 18.3506V6.39185L30.566 12.0451L19.5456 18.3506Z" fill="#34C96A" fill-opacity="0.14"/>
</g>
</g>
<g style="mix-blend-mode:exclusion">
<g style="mix-blend-mode:exclusion">
<path d="M29.7343 12.5771L19.7536 17.7318L29.7343 24.1235V12.5771Z" fill="#34C96A" fill-opacity="0.45"/>
</g>
</g>
<g style="mix-blend-mode:exclusion">
<g style="mix-blend-mode:exclusion">
<path d="M19.5456 18.5566V30.103L29.9422 23.9175L19.5456 18.5566Z" fill="#34C96A"/>
</g>
</g>
<g style="mix-blend-mode:exclusion">
<g style="mix-blend-mode:exclusion">
<path d="M19.5456 18.5566V30.103L8.10936 23.9175L19.5456 18.5566Z" fill="#34C96A" fill-opacity="0.78"/>
</g>
</g>
<g style="mix-blend-mode:exclusion">
<g style="mix-blend-mode:exclusion">
<path d="M8.10936 12.5771L19.7536 17.7318L8.10936 24.1235V12.5771Z" fill="#34C96A" fill-opacity="0.26"/>
</g>
</g>
<g style="mix-blend-mode:exclusion">
<g style="mix-blend-mode:exclusion">
<path d="M19.5456 18.3506V7.21655L8.10936 12.4799L19.5456 18.3506Z" fill="#34C96A" fill-opacity="0.53"/>
</g>
</g>
<g style="mix-blend-mode:exclusion">
<g style="mix-blend-mode:exclusion">
<path d="M19.3377 0.412354L36.0846 9.38143V27.3196L19.3377 36.2886L2.59075 27.3196V9.38143L19.3377 0.412354Z" fill="#293347" fill-opacity="0.36"/>
</g>
</g>
<g style="mix-blend-mode:color">
<g style="mix-blend-mode:color">
<path d="M19.3377 0.412354L36.0846 9.38143V27.3196L19.3377 36.2886L2.59075 27.3196V9.38143L19.3377 0.412354Z" fill="#293347" fill-opacity="0.2"/>
</g>
</g>
<g style="mix-blend-mode:color-burn">
<path style="mix-blend-mode:color-burn" d="M19.3377 0.412354L36.0846 9.38143V27.3196L19.3377 36.2886L2.59075 27.3196V9.38143L19.3377 0.412354Z" fill="url(#paint1_angular)"/>
</g>
<g filter="url(#filter1_d)">
<path d="M40.1725 23.2822V13.5832L42.2685 11.5049H48.0972L50.1133 13.5041V14.5531H48.9556V13.8603L47.5982 12.5342H42.7874L41.3303 13.9593V22.8863L42.7874 24.3313H47.5982L48.9556 23.0051V22.3123H50.1133V23.3614L48.0972 25.3605H42.2685L40.1725 23.2822ZM56.664 11.5049H58.0414L62.892 25.3605H61.6943L60.3369 21.4018H54.3684L53.0111 25.3605H51.8134L56.664 11.5049ZM59.9976 20.3923L57.3826 12.7519H57.3227L54.7278 20.3923H59.9976ZM74.9381 20.9267V25.3605H73.7804V21.2434L72.0038 19.363H66.5543V25.3605H65.3965V11.5049H73.1216L74.8583 13.2269V17.6212L73.3013 19.1651L74.9381 20.9267ZM66.5543 18.3535H72.6226L73.7205 17.2847V13.5832L72.6226 12.5144H66.5543V18.3535ZM82.1756 11.5049H83.553L88.4036 25.3605H87.2059L85.8486 21.4018H79.8801L78.5227 25.3605H77.325L82.1756 11.5049ZM85.5092 20.3923L82.8943 12.7519H82.8344L80.2394 20.3923H85.5092ZM90.9082 11.5049H98.6333L100.37 13.2269V17.5618L98.6133 19.3036H92.0659V25.3605H90.9082V11.5049ZM98.1342 18.2942L99.2321 17.2253V13.5832L98.1342 12.5144H92.0659V18.2942H98.1342ZM105.621 11.5049H106.998L111.849 25.3605H110.651L109.294 21.4018H103.325L101.968 25.3605H100.77L105.621 11.5049ZM108.955 20.3923L106.34 12.7519H106.28L103.685 20.3923H108.955ZM113.862 23.2822V13.5832L115.958 11.5049H121.786L123.802 13.5041V14.5531H122.645V13.8603L121.287 12.5342H116.477L115.019 13.9593V22.8863L116.477 24.3313H121.287L122.645 23.0051V22.3123H123.802V23.3614L121.786 25.3605H115.958L113.862 23.2822ZM126.797 11.5049H135.461V12.5342H127.955V17.8785H134.882V18.9078H127.955V24.3313H135.461V25.3605H126.797V11.5049Z" fill="white"/>
</g>
<g filter="url(#filter2_d)">
<path d="M40.1725 27.4392V37.1382L42.2685 39.2165H48.0972L50.1133 37.2173V36.1683H48.9556V36.861L47.5982 38.1872H42.7874L41.3303 36.7621V27.8351L42.7874 26.3901H47.5982L48.9556 27.7163V28.4091H50.1133V27.36L48.0972 25.3608H42.2685L40.1725 27.4392ZM56.664 39.2165H58.0414L62.892 25.3608H61.6943L60.3369 29.3196H54.3684L53.0111 25.3608H51.8134L56.664 39.2165ZM59.9976 30.3291L57.3826 37.9695H57.3227L54.7278 30.3291H59.9976ZM74.9381 29.7947V25.3608H73.7804V29.478L72.0038 31.3584H66.5543V25.3608H65.3965V39.2165H73.1216L74.8583 37.4945V33.1002L73.3013 31.5563L74.9381 29.7947ZM66.5543 32.3678H72.6226L73.7205 33.4367V37.1382L72.6226 38.207H66.5543V32.3678ZM82.1756 39.2165H83.553L88.4036 25.3608H87.2059L85.8486 29.3196H79.8801L78.5227 25.3608H77.325L82.1756 39.2165ZM85.5092 30.3291L82.8943 37.9695H82.8344L80.2394 30.3291H85.5092ZM90.9082 39.2165H98.6333L100.37 37.4945V33.1596L98.6133 31.4177H92.0659V25.3608H90.9082V39.2165ZM98.1342 32.4272L99.2321 33.4961V37.1382L98.1342 38.207H92.0659V32.4272H98.1342ZM105.621 39.2165H106.998L111.849 25.3608H110.651L109.294 29.3196H103.325L101.968 25.3608H100.77L105.621 39.2165ZM108.955 30.3291L106.34 37.9695H106.28L103.685 30.3291H108.955ZM113.862 27.4392V37.1382L115.958 39.2165H121.786L123.802 37.2173V36.1683H122.645V36.861L121.287 38.1872H116.477L115.019 36.7621V27.8351L116.477 26.3901H121.287L122.645 27.7163V28.4091H123.802V27.36L121.786 25.3608H115.958L113.862 27.4392ZM126.797 39.2165H135.461V38.1872H127.955V32.8429H134.882V31.8136H127.955V26.3901H135.461V25.3608H126.797V39.2165Z" fill="url(#paint2_linear)"/>
</g>
</g>
<defs>
<filter id="filter0_d" x="-4.26639" y="-1.87336" width="42.6367" height="45.0191" filterUnits="userSpaceOnUse" color-interpolation-filters="sRGB">
<feFlood flood-opacity="0" result="BackgroundImageFix"/>
<feColorMatrix in="SourceAlpha" type="matrix" values="0 0 0 0 0 0 0 0 0 0 0 0 0 0 0 0 0 0 127 0"/>
<feOffset dx="-2.28571" dy="2.28571"/>
<feGaussianBlur stdDeviation="2.28571"/>
<feColorMatrix type="matrix" values="0 0 0 0 0 0 0 0 0 0 0 0 0 0 0 0 0 0 0.1 0"/>
<feBlend mode="normal" in2="BackgroundImageFix" result="effect1_dropShadow"/>
<feBlend mode="normal" in="SourceGraphic" in2="effect1_dropShadow" result="shape"/>
</filter>
<filter id="filter1_d" x="36.7439" y="11.5049" width="98.7168" height="17.2842" filterUnits="userSpaceOnUse" color-interpolation-filters="sRGB">
<feFlood flood-opacity="0" result="BackgroundImageFix"/>
<feColorMatrix in="SourceAlpha" type="matrix" values="0 0 0 0 0 0 0 0 0 0 0 0 0 0 0 0 0 0 127 0"/>
<feOffset dx="-2.28571" dy="2.28571"/>
<feGaussianBlur stdDeviation="0.571429"/>
<feColorMatrix type="matrix" values="0 0 0 0 0 0 0 0 0 0 0 0 0 0 0 0 0 0 0.1 0"/>
<feBlend mode="normal" in2="BackgroundImageFix" result="effect1_dropShadow"/>
<feBlend mode="normal" in="SourceGraphic" in2="effect1_dropShadow" result="shape"/>
</filter>
<filter id="filter2_d" x="36.7439" y="25.3608" width="98.7168" height="17.2842" filterUnits="userSpaceOnUse" color-interpolation-filters="sRGB">
<feFlood flood-opacity="0" result="BackgroundImageFix"/>
<feColorMatrix in="SourceAlpha" type="matrix" values="0 0 0 0 0 0 0 0 0 0 0 0 0 0 0 0 0 0 127 0"/>
<feOffset dx="-2.28571" dy="2.28571"/>
<feGaussianBlur stdDeviation="0.571429"/>
<feColorMatrix type="matrix" values="0 0 0 0 0 0 0 0 0 0 0 0 0 0 0 0 0 0 0.1 0"/>
<feBlend mode="normal" in2="BackgroundImageFix" result="effect1_dropShadow"/>
<feBlend mode="normal" in="SourceGraphic" in2="effect1_dropShadow" result="shape"/>
</filter>
<linearGradient id="paint0_linear" x1="13.3077" y1="27.4226" x2="11.0492" y2="31.3567" gradientUnits="userSpaceOnUse">
<stop/>
<stop offset="1" stop-opacity="0"/>
</linearGradient>
<radialGradient id="paint1_angular" cx="0" cy="0" r="1" gradientUnits="userSpaceOnUse" gradientTransform="translate(19.3377 18.3505) rotate(90) scale(17.9381 19.3377)">
<stop stop-color="#293347" stop-opacity="0.29"/>
<stop offset="1" stop-color="#293347" stop-opacity="0"/>
</radialGradient>
<linearGradient id="paint2_linear" x1="96.4805" y1="37.9382" x2="96.4805" y2="26.3918" gradientUnits="userSpaceOnUse">
<stop offset="0.505208" stop-color="white" stop-opacity="0"/>
<stop offset="1" stop-color="white" stop-opacity="0.2"/>
</linearGradient>
<clipPath id="clip0">
<rect width="154.286" height="40" fill="white"/>
</clipPath>
</defs>
</svg>
