<svg width="1076" height="704" viewBox="0 0 1076 704" fill="none" xmlns="http://www.w3.org/2000/svg">
<g filter="url(#filter0_d)">
<g filter="url(#filter1_i)">
<path d="M402.5 0L553.71 465.377H1043.04L647.163 752.996L798.374 1218.37L402.5 930.754L6.62665 1218.37L157.837 752.996L-238.037 465.377H251.29L402.5 0Z" fill="#C7B58C"/>
</g>
<g style="mix-blend-mode:color-dodge">
<path d="M402.5 451.245V13.47L543.935 451.245L449.645 606.15L402.5 451.245Z" fill="#8C5430"/>
</g>
<g style="mix-blend-mode:color-dodge">
<path d="M591.08 606.15L1015.39 478.185L631.49 747.585L476.585 700.44L591.08 606.15Z" fill="#8C5430" fill-opacity="0.6"/>
</g>
<g style="mix-blend-mode:color-dodge">
<path d="M263.7 843.812L25.34 1198.83L173.51 734.576L321.68 700.44L263.7 843.812Z" fill="#8C5430" fill-opacity="0.23"/>
</g>
<g style="mix-blend-mode:color-dodge">
<path d="M-230.59 464.715L180.245 599.415H355.355L247.595 464.715H-230.59Z" fill="#8C5430" fill-opacity="0.78"/>
</g>
<g style="mix-blend-mode:color-dodge">
<path d="M402.5 431.04L456.936 598.576H633.093L490.579 702.119L545.014 869.654L402.5 766.112L259.986 869.654L314.421 702.119L171.907 598.576H348.064L402.5 431.04Z" fill="url(#paint0_radial)"/>
</g>
<g style="mix-blend-mode:saturation" filter="url(#filter2_i)">
<path d="M402.5 0L553.71 465.377H1043.04L647.163 752.996L798.374 1218.37L402.5 930.754L6.62665 1218.37L157.837 752.996L-238.037 465.377H251.29L402.5 0Z" fill="#C7B58C"/>
</g>
</g>
<defs>
<filter id="filter0_d" x="-242.037" y="0" width="1289.07" height="1226.37" filterUnits="userSpaceOnUse" color-interpolation-filters="sRGB">
<feFlood flood-opacity="0" result="BackgroundImageFix"/>
<feColorMatrix in="SourceAlpha" type="matrix" values="0 0 0 0 0 0 0 0 0 0 0 0 0 0 0 0 0 0 127 0"/>
<feOffset dy="4"/>
<feGaussianBlur stdDeviation="2"/>
<feColorMatrix type="matrix" values="0 0 0 0 0 0 0 0 0 0 0 0 0 0 0 0 0 0 0.25 0"/>
<feBlend mode="normal" in2="BackgroundImageFix" result="effect1_dropShadow"/>
<feBlend mode="normal" in="SourceGraphic" in2="effect1_dropShadow" result="shape"/>
</filter>
<filter id="filter1_i" x="-238.037" y="0" width="1281.07" height="1272.25" filterUnits="userSpaceOnUse" color-interpolation-filters="sRGB">
<feFlood flood-opacity="0" result="BackgroundImageFix"/>
<feBlend mode="normal" in="SourceGraphic" in2="BackgroundImageFix" result="shape"/>
<feColorMatrix in="SourceAlpha" type="matrix" values="0 0 0 0 0 0 0 0 0 0 0 0 0 0 0 0 0 0 127 0" result="hardAlpha"/>
<feOffset dy="53.88"/>
<feGaussianBlur stdDeviation="67.35"/>
<feComposite in2="hardAlpha" operator="arithmetic" k2="-1" k3="1"/>
<feColorMatrix type="matrix" values="0 0 0 0 0.211765 0 0 0 0 0.164706 0 0 0 0 0.113725 0 0 0 0.25 0"/>
<feBlend mode="normal" in2="shape" result="effect1_innerShadow"/>
</filter>
<filter id="filter2_i" x="-238.037" y="0" width="1281.07" height="1272.25" filterUnits="userSpaceOnUse" color-interpolation-filters="sRGB">
<feFlood flood-opacity="0" result="BackgroundImageFix"/>
<feBlend mode="normal" in="SourceGraphic" in2="BackgroundImageFix" result="shape"/>
<feColorMatrix in="SourceAlpha" type="matrix" values="0 0 0 0 0 0 0 0 0 0 0 0 0 0 0 0 0 0 127 0" result="hardAlpha"/>
<feOffset dy="53.88"/>
<feGaussianBlur stdDeviation="67.35"/>
<feComposite in2="hardAlpha" operator="arithmetic" k2="-1" k3="1"/>
<feColorMatrix type="matrix" values="0 0 0 0 0.211765 0 0 0 0 0.164706 0 0 0 0 0.113725 0 0 0 0.25 0"/>
<feBlend mode="normal" in2="shape" result="effect1_innerShadow"/>
</filter>
<radialGradient id="paint0_radial" cx="0" cy="0" r="1" gradientUnits="userSpaceOnUse" gradientTransform="translate(402.5 673.5) rotate(90) scale(242.46)">
<stop stop-color="#64532F"/>
<stop offset="1" stop-color="#C7B58C" stop-opacity="0"/>
</radialGradient>
</defs>
</svg>
