<?xml version="1.0" encoding="iso-8859-1"?>
<!-- Generator: Adobe Illustrator 18.0.0, SVG Export Plug-In . SVG Version: 6.00 Build 0)  -->
<!DOCTYPE svg PUBLIC "-//W3C//DTD SVG 1.1//EN" "http://www.w3.org/Graphics/SVG/1.1/DTD/svg11.dtd">
<svg version="1.1" id="Capa_1" xmlns="http://www.w3.org/2000/svg" xmlns:xlink="http://www.w3.org/1999/xlink" x="0px" y="0px"
	 viewBox="0 0 422.29 422.29" style="enable-background:new 0 0 422.29 422.29;" xml:space="preserve">
<g>
	<g>
		<g>
			<g>
				<path d="M273.141,110.656c-16.484,0-29.895-13.41-29.895-29.894s13.41-29.895,29.895-29.895s29.895,13.41,29.895,29.895
					S289.625,110.656,273.141,110.656z M273.141,60.867c-10.97,0-19.895,8.925-19.895,19.895s8.925,19.894,19.895,19.894
					s19.895-8.925,19.895-19.894S284.11,60.867,273.141,60.867z"/>
			</g>
			<g>
				<g>
					<path d="M273.141,43.709c-2.762,0-5-2.238-5-5V5c0-2.762,2.238-5,5-5c2.762,0,5,2.238,5,5v33.709
						C278.141,41.471,275.902,43.709,273.141,43.709z"/>
				</g>
				<g>
					<path d="M273.141,161.523c-2.762,0-5-2.238-5-5v-33.708c0-2.762,2.238-5,5-5c2.762,0,5,2.238,5,5v33.708
						C278.141,159.285,275.902,161.523,273.141,161.523z"/>
				</g>
			</g>
			<g>
				<g>
					<path d="M348.903,85.762h-33.708c-2.762,0-5-2.238-5-5c0-2.762,2.238-5,5-5h33.708c2.762,0,5,2.238,5,5
						C353.903,83.523,351.665,85.762,348.903,85.762z"/>
				</g>
				<g>
					<path d="M231.088,85.762h-33.71c-2.762,0-5-2.238-5-5c0-2.762,2.238-5,5-5h33.71c2.762,0,5,2.238,5,5
						C236.088,83.523,233.85,85.762,231.088,85.762z"/>
				</g>
			</g>
			<g>
				<g>
					<g>
						<path d="M302.876,56.026c-1.279,0-2.56-0.488-3.535-1.465c-1.953-1.952-1.953-5.118,0-7.07l12.545-12.545
							c1.951-1.953,5.119-1.953,7.07,0c1.953,1.952,1.953,5.118,0,7.07l-12.545,12.545
							C305.435,55.538,304.155,56.026,302.876,56.026z"/>
					</g>
					<g>
						<path d="M243.405,56.026c-1.279,0-2.559-0.488-3.535-1.464l-12.545-12.542c-1.953-1.952-1.953-5.118-0.001-7.071
							c1.953-1.953,5.118-1.952,7.071-0.001L246.94,47.49c1.953,1.952,1.953,5.118,0.001,7.071
							C245.965,55.538,244.684,56.026,243.405,56.026z"/>
					</g>
				</g>
				<g>
					<g>
						<path d="M230.86,128.042c-1.279,0-2.56-0.488-3.535-1.465c-1.953-1.952-1.953-5.118,0-7.07l12.545-12.545
							c1.951-1.953,5.119-1.953,7.07,0c1.953,1.952,1.953,5.118,0,7.07l-12.545,12.545
							C233.42,127.554,232.14,128.042,230.86,128.042z"/>
					</g>
					<g>
						<path d="M315.421,128.042c-1.279,0-2.559-0.488-3.535-1.464l-12.545-12.543c-1.953-1.953-1.953-5.118-0.001-7.071
							c1.953-1.953,5.118-1.952,7.071-0.001l12.545,12.543c1.953,1.953,1.953,5.118,0.001,7.071
							C317.98,127.554,316.7,128.042,315.421,128.042z"/>
					</g>
				</g>
			</g>
		</g>
		<g>
			<g>
				<path d="M330.847,414.904c-17.475-32.184-67.682-54.095-125.892-55.295c0.325-5.146,3.53-33.196,34.902-65.002
					c6.243,4.628,13.828,6.913,21.688,6.913c11.31-0.001,23.182-4.72,32.41-13.949c19.85-19.849,36.168-55.686,27.918-78.972
					c-0.523-1.477-1.68-2.534-3.051-3.021l0.008-0.021c-23.286-8.25-59.123,8.067-78.972,27.918
					c-15.626,15.626-18.312,38.819-7.063,54.051c-15.275,15.453-24.389,30.185-29.828,42.315
					c-7.422-50.526-34.116-84.689-43.408-95.262c11.397-15.227,8.753-38.538-6.934-54.227
					c-19.849-19.847-55.688-36.162-78.97-27.917l0.008,0.021c-1.372,0.486-2.528,1.542-3.052,3.021
					c-8.25,23.287,8.067,59.124,27.917,78.972c8.138,8.138,18.548,13.277,29.352,13.865c9.448,0.514,18.49-2.229,24.539-6.66
					c46.227,59.704,42.543,117.458,42.521,117.954c-58.233,1.185-108.468,23.101-125.948,55.295
					c-0.842,1.549-0.805,3.427,0.097,4.942c0.901,1.515,2.534,2.443,4.297,2.443h253.065c1.763,0,3.396-0.929,4.297-2.443
					C331.65,418.331,331.687,416.453,330.847,414.904z M246.929,240.545c16.704-16.704,47.231-30.976,66.209-26.253
					c4.722,18.976-9.549,49.505-26.253,66.209c-11.666,11.664-28.495,14.28-39.822,6.938l29.613-29.612
					c1.953-1.952,1.953-5.118,0-7.07c-1.951-1.953-5.119-1.953-7.07,0l-29.613,29.613
					C232.648,269.043,235.264,252.212,246.929,240.545z M152.492,227.247l-29.611-29.612c-1.951-1.953-5.119-1.953-7.07,0
					c-1.953,1.952-1.953,5.118,0,7.07l29.613,29.615c-4.73,3.072-10.532,4.491-16.801,4.023c-8.402-0.626-16.579-4.52-23.024-10.964
					c-16.704-16.704-30.974-47.232-26.252-66.209c18.975-4.716,49.503,9.55,66.207,26.253
					C157.22,199.092,159.835,215.923,152.492,227.247z M82.638,412.29c19.818-25.51,66.182-42.738,117.281-42.738
					s97.464,17.229,117.282,42.738H82.638z"/>
				<g>
					<g>
						<g>
							<path d="M199.914,386.976c-1.309,0-2.6-0.53-3.529-1.46c-0.931-0.931-1.471-2.221-1.471-3.54c0-1.32,0.54-2.601,1.471-3.54
								c0.93-0.931,2.22-1.46,3.529-1.46c1.32,0,2.61,0.529,3.54,1.46c0.931,0.94,1.46,2.22,1.46,3.54c0,1.319-0.529,2.6-1.46,3.54
								C202.524,386.445,201.234,386.976,199.914,386.976z"/>
						</g>
						<g>
							<path d="M199.914,406.025c-1.309,0-2.6-0.53-3.529-1.46c-0.931-0.93-1.471-2.22-1.471-3.54c0-1.32,0.54-2.6,1.471-3.54
								c0.93-0.93,2.22-1.46,3.529-1.46c1.32,0,2.61,0.53,3.54,1.46c0.931,0.941,1.46,2.23,1.46,3.54c0,1.32-0.529,2.61-1.46,3.54
								C202.524,405.495,201.234,406.025,199.914,406.025z"/>
						</g>
					</g>
					<g>
						<g>
							<path d="M161.604,396.495c-1.32,0-2.61-0.53-3.54-1.46c-0.93-0.93-1.46-2.22-1.46-3.54c0-1.31,0.53-2.6,1.46-3.53
								c0.93-0.93,2.22-1.47,3.54-1.47c1.32,0,2.6,0.54,3.54,1.47c0.93,0.931,1.46,2.221,1.46,3.53c0,1.32-0.53,2.61-1.46,3.54
								C164.204,395.965,162.925,396.495,161.604,396.495z"/>
						</g>
						<g>
							<path d="M238.234,396.495c-1.32,0-2.61-0.53-3.54-1.46c-0.93-0.93-1.46-2.22-1.46-3.54c0-1.31,0.53-2.6,1.46-3.53
								c0.93-0.93,2.22-1.47,3.54-1.47c1.32,0,2.61,0.54,3.53,1.47c0.939,0.931,1.47,2.221,1.47,3.53c0,1.32-0.53,2.61-1.47,3.54
								C240.845,395.965,239.555,396.495,238.234,396.495z"/>
						</g>
					</g>
				</g>
			</g>
		</g>
	</g>
</g>
<g>
</g>
<g>
</g>
<g>
</g>
<g>
</g>
<g>
</g>
<g>
</g>
<g>
</g>
<g>
</g>
<g>
</g>
<g>
</g>
<g>
</g>
<g>
</g>
<g>
</g>
<g>
</g>
<g>
</g>
</svg>
