<?xml version="1.0" encoding="iso-8859-1"?>
<!-- Generator: Adobe Illustrator 19.0.0, SVG Export Plug-In . SVG Version: 6.00 Build 0)  -->
<svg version="1.1" id="Layer_1" xmlns="http://www.w3.org/2000/svg" xmlns:xlink="http://www.w3.org/1999/xlink" x="0px" y="0px"
	 viewBox="0 0 512 512" style="enable-background:new 0 0 512 512;" xml:space="preserve">
<g>
	<g>
		<path d="M229.275,161.534c-4.779-0.204-8.801,3.482-9.012,8.25c-1.356,30.681-7.629,56.634-18.646,77.139
			c-2.259,4.202-0.682,9.441,3.521,11.698c1.3,0.699,2.701,1.031,4.081,1.031c3.078,0,6.056-1.649,7.616-4.551
			c12.258-22.81,19.219-51.258,20.69-84.555C237.736,165.78,234.042,161.745,229.275,161.534z"/>
	</g>
</g>
<g>
	<g>
		<path d="M318.276,227.446c-3.448-3.299-8.915-3.178-12.214,0.268c-14.908,15.579-47.061,29.356-86.011,36.855
			c-4.685,0.902-7.751,5.431-6.85,10.116c0.796,4.134,4.415,7.008,8.474,7.008c0.541,0,1.091-0.051,1.643-0.158
			c42.967-8.271,77.676-23.533,95.228-41.874C321.844,236.213,321.724,230.745,318.276,227.446z"/>
	</g>
</g>
<g>
	<g>
		<path d="M171.109,292.65c-2.259-4.203-7.495-5.779-11.698-3.521c-20.506,11.017-46.46,17.292-77.14,18.646
			c-4.766,0.211-8.46,4.246-8.25,9.012c0.206,4.636,4.029,8.258,8.624,8.258c0.129,0,0.259-0.002,0.388-0.008
			c33.294-1.471,61.744-8.432,84.555-20.687C171.79,302.092,173.368,296.853,171.109,292.65z"/>
	</g>
</g>
<g>
	<g>
		<path d="M187.174,300.713c-4.687-0.903-9.214,2.164-10.117,6.85c-7.499,38.95-21.276,71.104-36.856,86.012
			c-3.446,3.299-3.567,8.767-0.268,12.214c1.698,1.774,3.968,2.665,6.243,2.665c2.147,0,4.298-0.796,5.972-2.398
			c18.341-17.551,33.604-52.26,41.875-95.227C194.925,306.144,191.859,301.615,187.174,300.713z"/>
	</g>
</g>
<g>
	<g>
		<path d="M508.858,237.293L468.252,67.896c-0.631-2.633-2.461-4.819-4.943-5.903c-2.482-1.084-5.328-0.941-7.69,0.385
			l-151.86,85.327c-7.194,4.041-13.843,8.809-19.902,14.235c-6.563-19.553-17.584-37.494-32.388-52.297l-19.598-19.598
			c-3.374-3.373-8.844-3.374-12.216,0l-19.6,19.598c-11.019,11.02-19.884,23.578-26.446,37.444
			c-21.869-14.395-47.116-21.95-73.663-21.95H46.262c-4.772,0-8.639,3.868-8.639,8.639v53.688c0,26.545,7.555,51.793,21.951,73.663
			c-13.867,6.562-26.426,15.428-37.444,26.446l-19.6,19.598C0.91,308.788,0,310.986,0,313.277s0.91,4.489,2.529,6.108l19.599,19.598
			c19.972,19.972,45.649,33.078,73.299,37.61c-4.726,12.474-7.114,25.599-7.114,39.158v26.339c0,4.771,3.867,8.639,8.639,8.639
			h26.338c61.268,0,111.114-49.845,111.114-111.113v-5.483l51.073,51.073c1.687,1.687,3.898,2.531,6.109,2.531
			c2.21,0,4.422-0.843,6.109-2.531c3.374-3.374,3.374-8.844,0-12.216l-51.073-51.074h5.482c7.317,0,14.467-0.719,21.392-2.075
			l40.096,63.355l-9.722,22.258c-1.91,4.372,0.086,9.465,4.459,11.375c1.127,0.492,2.299,0.724,3.453,0.724
			c3.33,0,6.503-1.937,7.921-5.183l9.723-22.261l91.087-16.856c30.45-5.639,56.511-23.044,73.38-49.008
			C510.762,298.285,516.076,267.404,508.858,237.293z M252.104,304.637h-22.759v0.001L109.904,185.197
			c-3.375-3.374-8.844-3.374-12.218,0c-3.374,3.374-3.374,8.844,0,12.216l119.441,119.441v22.761
			c0,51.741-42.095,93.835-93.836,93.835h-17.699V415.75c0-14.907,3.418-29.187,10.156-42.444c1.312-2.579,1.244-5.643-0.179-8.163
			c-1.421-2.519-4.011-4.159-6.897-4.368c-28.03-2.033-54.427-14.111-74.324-34.009l-13.49-13.489l13.49-13.489
			c11.926-11.926,25.914-20.957,41.576-26.839c2.574-0.966,4.536-3.101,5.279-5.749c0.744-2.647,0.184-5.491-1.51-7.657
			c-16.218-20.755-24.79-45.68-24.79-72.082v-45.049h45.048c26.401,0,51.328,8.572,72.082,24.791
			c2.167,1.693,5.013,2.252,7.657,1.51c2.647-0.744,4.781-2.705,5.749-5.279c5.88-15.661,14.911-29.649,26.838-41.576l13.49-13.489
			l13.488,13.489c19.899,19.898,31.979,46.295,34.011,74.325c0.21,2.885,1.849,5.475,4.369,6.897s5.583,1.49,8.162,0.179
			c13.258-6.739,27.538-10.157,42.444-10.157h17.699v17.7C345.939,262.543,303.845,304.637,252.104,304.637z M321.94,364.081
			l-31.098-49.137c13.026-4.861,24.901-12.101,35.098-21.187l17.668,20.711L321.94,364.081z M479.404,314.833
			c-14.262,21.951-36.295,36.664-62.036,41.432l-79.593,14.729l7.916-18.122l52.904-16.8c4.548-1.444,7.064-6.302,5.62-10.848
			c-1.446-4.547-6.303-7.064-10.848-5.619l-38.483,12.221l26.055-59.655l61.227-17.818c4.582-1.333,7.214-6.128,5.88-10.709
			c-1.334-4.582-6.135-7.214-10.709-5.88l-47.395,13.792l49.73-113.86c1.91-4.372-0.086-9.465-4.459-11.375
			c-4.374-1.909-9.465,0.088-11.375,4.459l-28.155,64.462l-16.697-36.379c-1.99-4.337-7.118-6.236-11.455-4.248
			c-4.337,1.99-6.237,7.12-4.248,11.455l23.131,50.396L351.3,296.863l-13.326-15.621c15.766-19.185,25.243-43.724,25.243-70.437
			v-26.339c0-4.771-3.867-8.639-8.639-8.639H328.24c-13.558,0-26.681,2.388-39.157,7.115c-0.089-0.54-0.202-1.074-0.297-1.613
			c6.744-7.367,14.61-13.602,23.438-18.56l141.893-79.729l37.941,158.279C498.158,266.777,493.666,292.885,479.404,314.833z"/>
	</g>
</g>
<g>
</g>
<g>
</g>
<g>
</g>
<g>
</g>
<g>
</g>
<g>
</g>
<g>
</g>
<g>
</g>
<g>
</g>
<g>
</g>
<g>
</g>
<g>
</g>
<g>
</g>
<g>
</g>
<g>
</g>
</svg>
