<?xml version="1.0" encoding="iso-8859-1"?>
<!-- Generator: Adobe Illustrator 19.0.0, SVG Export Plug-In . SVG Version: 6.00 Build 0)  -->
<svg version="1.1" id="Capa_1" xmlns="http://www.w3.org/2000/svg" xmlns:xlink="http://www.w3.org/1999/xlink" x="0px" y="0px"
	 viewBox="0 0 409.6 409.6" style="enable-background:new 0 0 409.6 409.6;" xml:space="preserve">
<g>
	<g>
		<g>
			<path d="M33.6,155.6l44.8-15.2l29.6,17.2l-31.6,10.8c-4.4,1.6-6.8,6-5.2,10.4c1.6,4.4,6,6.8,10.4,5.2l44.8-15.2l17.6,9.6
				c3.6,2.4,8.4,1.2,10.8-2.8c2.4-3.6,1.2-8.4-2.8-10.8l-17.2-10l-9.2-46.4c-1.2-4.4-5.2-7.2-9.6-6.4c-4.4,1.2-7.2,5.2-6.4,9.6
				l6.8,31.2l-29.6-17.2l-9.2-46.4c-1.2-4.4-5.2-7.2-9.6-6.4c-4.4,1.2-7.2,5.2-6.4,9.6l6.4,32.8L38.4,98.4
				c-3.6-2.4-8.4-1.2-10.8,2.8c-2.4,3.6-1.2,8.4,2.8,10.8L60,129.2L28.4,140c-4.4,1.6-6.8,6-5.2,10.4
				C24.8,154.8,29.2,157.2,33.6,155.6z"/>
			<path d="M282.8,205.2c1.2-4-0.8-8.8-5.2-10l-36.4-12l5.2-39.2c0.4-2.4-0.4-4.4-2.4-6c-2.8-3.6-8-3.6-11.2-0.8L204,162.8l-31.2-24
				c-1.6-1.6-4-2-6.4-1.6c-4.4,1.2-7.2,5.2-6.4,9.6l7.6,37.6l-36.4,15.2c-2,0.8-3.6,2.4-4.4,4.8c-1.2,4,0.8,8.8,5.2,10l36.4,12
				l-5.2,39.2c-0.4,2.4,0.4,4.4,2,6.4c2.8,3.6,8,3.6,11.2,0.8l29.2-26l31.2,24c1.6,1.6,4,2,6.4,1.6c4.4-1.2,7.2-5.2,6.4-9.6
				l-7.6-37.6l36.4-15.2C280.4,209.2,282,207.6,282.8,205.2z M229.6,213.2c-3.6,1.6-5.6,5.6-4.8,9.2l4.4,22.8l-19.6-14.8
				c-3.2-2.8-7.6-2.4-10.4,0.4l-17.6,15.6l3.2-24.4c0.8-4-2-7.6-5.6-8.8l-22-7.2l22.8-9.2c3.6-1.6,5.6-5.6,4.8-9.2l-4.8-23.2
				l19.6,14.8c3.2,2.8,7.6,2.4,10.4-0.4l17.6-15.6l-3.2,24.4c-0.4,4,2,7.6,6,9.2l22,7.2L229.6,213.2z"/>
			<path d="M171.6,75.6c-3.2-2.8-8.4-2.4-11.2,0.8c-2.8,3.2-2.4,8.4,0.8,11.2l35.6,31.2v19.6c0,4.4,3.6,8,8,8c4.4,0,8-3.6,8-8v-19.6
				l35.6-31.2c3.2-2.8,3.6-8,0.8-11.2c-2.8-3.2-8-3.6-11.2-0.8l-25.2,22V63.2L248.4,32c3.2-2.8,3.6-8,0.8-11.2s-8-3.6-11.2-0.8
				l-25.2,22V8c0-4.4-3.6-8-8-8c-4.4,0-8,3.6-8,8v34l-25.2-22c-3.2-2.8-8.4-2.4-11.2,0.8c-2.8,3.2-2.4,8.4,0.8,11.2l35.6,31.2v34.4
				L171.6,75.6z"/>
			<path d="M143.6,230.8l-17.2,10l-44.8-15.6c-4.4-1.2-8.8,0.8-10.4,5.2c-1.2,4.4,0.8,8.8,5.2,10.4l31.2,10L78,268l-44.8-15.2
				c-4.4-1.2-8.8,0.8-10.4,5.2c-1.2,4,0.8,8.4,5.2,10l31.6,10.8L30,296c-3.6,2-5.2,6.8-2.8,10.8c2,3.6,6.8,5.2,10.8,2.8l29.6-16.8
				l-6.4,32.8c-0.8,4.4,2,8.8,6.4,9.6c4.4,0.8,8.8-2,9.6-6.4L86,282l29.6-17.2l-6.4,32.8c-0.8,4.4,2,8.8,6.4,9.6
				c4.4,0.8,8.8-2,9.6-6.4l9.2-46.4l17.2-10c3.6-2,5.2-6.8,2.8-10.8C152.4,230,147.6,228.4,143.6,230.8z"/>
			<path d="M381.6,141.6L350,130.8l29.6-17.2c3.6-2,5.2-6.8,2.8-10.8c-2-3.6-6.8-5.2-10.8-2.8L342,116.8l6.4-32.8
				c0.8-4.4-2-8.8-6.4-9.6c-4.4-0.8-8.8,2-9.6,6.4l-8.8,46.8L294,144.8l6.4-32.8c0.8-4.4-2-8.8-6.4-9.6c-4.4-0.8-8.8,2-9.6,6.4
				l-9.2,46.4l-17.2,10c-3.6,2-5.2,6.8-2.8,10.8c2,3.6,6.8,5.2,10.8,2.8l17.2-10l45.2,15.6c4,1.2,8.4-0.8,10-5.2
				c1.2-4.4-0.8-8.8-5.2-10.4l-31.2-9.6l29.6-17.2l44.8,15.2c4.4,1.2,8.8-0.8,10.4-5.2C388,147.6,386,143.2,381.6,141.6z"/>
			<path d="M375.6,254.4l-44.8,15.2l-29.6-17.2l31.6-10.8c4.4-1.6,6.8-6,5.2-10.4c-1.2-4.4-5.6-6.8-10-5.2l-44.8,15.2l-17.2-10
				c-3.6-2.4-8.4-1.2-10.8,2.8c-2.4,3.6-1.2,8.4,2.8,10.8l16.8,10l9.2,46.4c1.2,4.4,5.2,7.2,9.6,6.4c4.4-1.2,7.2-5.2,6.4-9.6
				l-7.2-31.2l29.6,17.2l9.2,46.4c1.2,4.4,5.2,7.2,9.6,6.4c4.4-1.2,7.2-5.2,6.4-9.6l-6.4-32.8l29.6,16.8c3.6,2.4,8.4,1.2,10.8-2.8
				c2.4-3.6,1.2-8.4-2.8-10.8l-29.6-17.2l31.6-10.8c4.4-1.2,6.8-5.6,5.2-10C384.4,255.2,380,252.8,375.6,254.4z"/>
			<path d="M238,334c3.2,2.8,8.4,2.4,11.2-0.8s2.4-8.4-0.8-11.2l-35.6-31.2v-19.6c0-4.4-3.6-8-8-8c-4.4,0-8,3.6-8,8v19.6L161.2,322
				c-3.2,2.8-3.6,8-0.8,11.2c2.8,3.2,8,3.6,11.2,0.8l25.2-22v34.4l-35.6,31.2c-3.2,2.8-3.6,8-0.8,11.2s8,3.6,11.2,0.8l25.2-22v34
				c0,4.4,3.6,8,8,8c4.4,0,8-3.6,8-8v-34l25.2,22c3.2,2.8,8.4,2.4,11.2-0.8s2.4-8.4-0.8-11.2l-35.6-31.2V312L238,334z"/>
		</g>
	</g>
</g>
<g>
</g>
<g>
</g>
<g>
</g>
<g>
</g>
<g>
</g>
<g>
</g>
<g>
</g>
<g>
</g>
<g>
</g>
<g>
</g>
<g>
</g>
<g>
</g>
<g>
</g>
<g>
</g>
<g>
</g>
</svg>
